<svg fill="#EAB555" xmlns="http://www.w3.org/2000/svg" xmlns:xlink="http://www.w3.org/1999/xlink" version="1.1" width="50px" height="50px" viewBox="0 0 256 256" xml:space="preserve">

<defs>
</defs>
<g style="stroke: none; stroke-width: 0; stroke-dasharray: none; stroke-linecap: butt; stroke-linejoin: miter; stroke-miterlimit: 10; opacity: 1;" transform="translate(1.4065934065934016 1.4065934065934016) scale(2.81 2.81)" >
	<path d="M 8.467 11.361 c -2.774 0 -5.031 -2.257 -5.031 -5.031 c 0 -2.774 2.257 -5.031 5.031 -5.031 c 2.774 0 5.031 2.257 5.031 5.031 C 13.499 9.104 11.242 11.361 8.467 11.361 z M 8.467 3.299 c -1.671 0 -3.031 1.36 -3.031 3.031 s 1.359 3.031 3.031 3.031 s 3.031 -1.359 3.031 -3.031 S 10.139 3.299 8.467 3.299 z" style="stroke: none; stroke-width: 1; stroke-dasharray: none; stroke-linecap: butt; stroke-linejoin: miter; stroke-miterlimit: 10; opacity: 1;" transform=" matrix(1 0 0 1 0 0) " stroke-linecap="round" />
	<path d="M 79.611 79.782 c -2.773 0 -5.03 -2.257 -5.03 -5.031 s 2.257 -5.031 5.03 -5.031 c 2.774 0 5.031 2.257 5.031 5.031 S 82.386 79.782 79.611 79.782 z M 79.611 71.72 c -1.671 0 -3.03 1.359 -3.03 3.031 s 1.359 3.031 3.03 3.031 c 1.672 0 3.031 -1.359 3.031 -3.031 S 81.283 71.72 79.611 71.72 z" style="stroke: none; stroke-width: 1; stroke-dasharray: none; stroke-linecap: butt; stroke-linejoin: miter; stroke-miterlimit: 10; opacity: 1;" transform=" matrix(1 0 0 1 0 0) " stroke-linecap="round" />
	<path d="M 1.45 37 c -0.26 0 -0.52 -0.1 -0.7 -0.29 c -0.1 -0.09 -0.17 -0.2 -0.22 -0.32 c -0.05 -0.12 -0.08 -0.25 -0.08 -0.38 c 0 -0.14 0.03 -0.27 0.08 -0.39 c 0.05 -0.12 0.12 -0.23 0.22 -0.32 c 0.23 -0.23 0.57 -0.34 0.9 -0.28 c 0.06 0.02 0.12 0.04 0.19 0.06 c 0.06 0.03 0.11 0.06 0.17 0.09 c 0.05 0.04 0.1 0.08 0.15 0.13 c 0.19 0.18 0.29 0.44 0.29 0.71 c 0 0.13 -0.02 0.26 -0.07 0.38 c -0.05 0.12 -0.13 0.23 -0.22 0.32 c -0.05 0.05 -0.1 0.09 -0.15 0.13 c -0.06 0.03 -0.11 0.06 -0.17 0.09 c -0.07 0.02 -0.13 0.04 -0.19 0.05 C 1.58 37 1.52 37 1.45 37 z" style="stroke: none; stroke-width: 1; stroke-dasharray: none; stroke-linecap: butt; stroke-linejoin: miter; stroke-miterlimit: 10; opacity: 1;" transform=" matrix(1 0 0 1 0 0) " stroke-linecap="round" />
	<path d="M 58.35 82.22 c -0.27 0 -0.52 -0.1 -0.71 -0.29 c -0.09 -0.09 -0.16 -0.2 -0.21 -0.32 c -0.06 -0.13 -0.08 -0.25 -0.08 -0.39 c 0 -0.13 0.021 -0.26 0.08 -0.38 c 0.05 -0.12 0.12 -0.23 0.21 -0.33 c 0.37 -0.37 1.05 -0.37 1.42 0 c 0.09 0.1 0.16 0.21 0.21 0.33 s 0.08 0.25 0.08 0.38 c 0 0.14 -0.03 0.26 -0.08 0.39 c -0.05 0.12 -0.12 0.23 -0.21 0.32 c -0.1 0.09 -0.21 0.17 -0.33 0.22 C 58.609 82.2 58.479 82.22 58.35 82.22 z" style="stroke: none; stroke-width: 1; stroke-dasharray: none; stroke-linecap: butt; stroke-linejoin: miter; stroke-miterlimit: 10; opacity: 1;" transform=" matrix(1 0 0 1 0 0) " stroke-linecap="round" />
	<path d="M 43 2 c -0.14 0 -0.26 -0.03 -0.39 -0.08 c -0.12 -0.05 -0.23 -0.12 -0.32 -0.21 C 42.1 1.52 42 1.26 42 1 c 0 -0.26 0.1 -0.52 0.29 -0.71 c 0.09 -0.09 0.2 -0.16 0.32 -0.21 C 42.8 0 43 -0.02 43.19 0.02 c 0.06 0.01 0.13 0.03 0.19 0.06 c 0.06 0.02 0.12 0.05 0.17 0.09 c 0.06 0.04 0.11 0.08 0.15 0.12 c 0.1 0.1 0.17 0.2 0.22 0.33 C 43.97 0.74 44 0.87 44 1 c 0 0.26 -0.11 0.52 -0.3 0.71 c -0.04 0.04 -0.09 0.08 -0.15 0.12 c -0.05 0.04 -0.11 0.07 -0.17 0.09 c -0.06 0.03 -0.13 0.05 -0.19 0.06 C 43.13 1.99 43.06 2 43 2 z" style="stroke: none; stroke-width: 1; stroke-dasharray: none; stroke-linecap: butt; stroke-linejoin: miter; stroke-miterlimit: 10; opacity: 1;" transform=" matrix(1 0 0 1 0 0) " stroke-linecap="round" />
	<path d="M 8.146 72.604 H 6.853 c -0.552 0 -1 -0.447 -1 -1 s 0.448 -1 1 -1 h 1.293 c 0.552 0 1 0.447 1 1 S 8.699 72.604 8.146 72.604 z" style="stroke: none; stroke-width: 1; stroke-dasharray: none; stroke-linecap: butt; stroke-linejoin: miter; stroke-miterlimit: 10; opacity: 1;" transform=" matrix(1 0 0 1 0 0) " stroke-linecap="round" />
	<path d="M 14.63 72.604 h -1.293 c -0.552 0 -1 -0.447 -1 -1 s 0.448 -1 1 -1 h 1.293 c 0.552 0 1 0.447 1 1 S 15.182 72.604 14.63 72.604 z" style="stroke: none; stroke-width: 1; stroke-dasharray: none; stroke-linecap: butt; stroke-linejoin: miter; stroke-miterlimit: 10; opacity: 1;" transform=" matrix(1 0 0 1 0 0) " stroke-linecap="round" />
	<path d="M 10.742 70.009 c -0.552 0 -1 -0.447 -1 -1 v -1.294 c 0 -0.553 0.448 -1 1 -1 s 1 0.447 1 1 v 1.294 C 11.742 69.562 11.294 70.009 10.742 70.009 z" style="stroke: none; stroke-width: 1; stroke-dasharray: none; stroke-linecap: butt; stroke-linejoin: miter; stroke-miterlimit: 10; opacity: 1;" transform=" matrix(1 0 0 1 0 0) " stroke-linecap="round" />
	<path d="M 10.742 76.492 c -0.552 0 -1 -0.447 -1 -1 v -1.294 c 0 -0.553 0.448 -1 1 -1 s 1 0.447 1 1 v 1.294 C 11.742 76.045 11.294 76.492 10.742 76.492 z" style="stroke: none; stroke-width: 1; stroke-dasharray: none; stroke-linecap: butt; stroke-linejoin: miter; stroke-miterlimit: 10; opacity: 1;" transform=" matrix(1 0 0 1 0 0) " stroke-linecap="round" />
	<path d="M 59.073 35.196 h -1.294 c -0.553 0 -1 -0.448 -1 -1 s 0.447 -1 1 -1 h 1.294 c 0.553 0 1 0.448 1 1 S 59.626 35.196 59.073 35.196 z" style="stroke: none; stroke-width: 1; stroke-dasharray: none; stroke-linecap: butt; stroke-linejoin: miter; stroke-miterlimit: 10; opacity: 1;" transform=" matrix(1 0 0 1 0 0) " stroke-linecap="round" />
	<path d="M 65.557 35.196 h -1.294 c -0.553 0 -1 -0.448 -1 -1 s 0.447 -1 1 -1 h 1.294 c 0.553 0 1 0.448 1 1 S 66.109 35.196 65.557 35.196 z" style="stroke: none; stroke-width: 1; stroke-dasharray: none; stroke-linecap: butt; stroke-linejoin: miter; stroke-miterlimit: 10; opacity: 1;" transform=" matrix(1 0 0 1 0 0) " stroke-linecap="round" />
	<path d="M 61.668 32.601 c -0.553 0 -1 -0.448 -1 -1 v -1.293 c 0 -0.552 0.447 -1 1 -1 s 1 0.448 1 1 v 1.293 C 62.668 32.153 62.221 32.601 61.668 32.601 z" style="stroke: none; stroke-width: 1; stroke-dasharray: none; stroke-linecap: butt; stroke-linejoin: miter; stroke-miterlimit: 10; opacity: 1;" transform=" matrix(1 0 0 1 0 0) " stroke-linecap="round" />
	<path d="M 61.668 39.084 c -0.553 0 -1 -0.448 -1 -1 v -1.293 c 0 -0.552 0.447 -1 1 -1 s 1 0.448 1 1 v 1.293 C 62.668 38.637 62.221 39.084 61.668 39.084 z" style="stroke: none; stroke-width: 1; stroke-dasharray: none; stroke-linecap: butt; stroke-linejoin: miter; stroke-miterlimit: 10; opacity: 1;" transform=" matrix(1 0 0 1 0 0) " stroke-linecap="round" />
	<path d="M 88.55 56.439 c -0.27 0 -0.52 -0.109 -0.71 -0.29 c -0.19 -0.189 -0.29 -0.449 -0.29 -0.71 c 0 -0.13 0.02 -0.26 0.07 -0.38 c 0.05 -0.12 0.13 -0.229 0.22 -0.33 c 0.09 -0.09 0.2 -0.16 0.32 -0.21 c 0.06 -0.029 0.13 -0.05 0.189 -0.06 c 0.33 -0.07 0.681 0.04 0.9 0.27 c 0.1 0.101 0.17 0.2 0.22 0.33 c 0.05 0.12 0.07 0.25 0.07 0.38 c 0 0.271 -0.101 0.521 -0.29 0.71 C 89.069 56.33 88.81 56.439 88.55 56.439 z" style="stroke: none; stroke-width: 1; stroke-dasharray: none; stroke-linecap: butt; stroke-linejoin: miter; stroke-miterlimit: 10; opacity: 1;" transform=" matrix(1 0 0 1 0 0) " stroke-linecap="round" />
	<path d="M 25.02 90 c -0.13 0 -0.26 -0.03 -0.38 -0.08 c -0.12 -0.05 -0.23 -0.12 -0.33 -0.21 c -0.19 -0.19 -0.29 -0.44 -0.29 -0.71 c 0 -0.26 0.11 -0.521 0.29 -0.71 c 0.05 -0.04 0.1 -0.09 0.15 -0.12 c 0.06 -0.04 0.12 -0.07 0.18 -0.09 c 0.06 -0.03 0.12 -0.05 0.18 -0.061 c 0.2 -0.04 0.4 -0.02 0.58 0.061 c 0.12 0.05 0.23 0.12 0.33 0.21 c 0.18 0.189 0.29 0.45 0.29 0.71 c 0 0.13 -0.03 0.26 -0.08 0.38 c -0.05 0.12 -0.12 0.229 -0.21 0.33 c -0.1 0.09 -0.21 0.16 -0.33 0.21 S 25.15 90 25.02 90 z" style="stroke: none; stroke-width: 1; stroke-dasharray: none; stroke-linecap: butt; stroke-linejoin: miter; stroke-miterlimit: 10; opacity: 1;" transform=" matrix(1 0 0 1 0 0) " stroke-linecap="round" />
	<path d="M 44.17 72.914 c -15.392 0 -27.914 -12.522 -27.914 -27.914 c 0 -15.272 12.425 -27.792 27.696 -27.908 c 0.003 0 0.005 0 0.008 0 c 0.385 0 0.736 0.221 0.903 0.569 c 0.167 0.351 0.116 0.766 -0.13 1.066 c -3.932 4.78 -6.098 10.826 -6.098 17.025 c 0 14.126 11.036 25.88 25.125 26.759 c 0.388 0.024 0.726 0.271 0.868 0.632 c 0.142 0.361 0.063 0.772 -0.205 1.055 C 59.094 69.818 51.901 72.914 44.17 72.914 z M 41.868 19.193 C 28.669 20.366 18.256 31.529 18.256 45 c 0 14.289 11.625 25.914 25.914 25.914 c 6.473 0 12.538 -2.337 17.296 -6.624 C 47.377 62.338 36.635 50.2 36.635 35.752 C 36.635 29.821 38.48 24.02 41.868 19.193 z" style="stroke: none; stroke-width: 1; stroke-dasharray: none; stroke-linecap: butt; stroke-linejoin: miter; stroke-miterlimit: 10; opacity: 1;" transform=" matrix(1 0 0 1 0 0) " stroke-linecap="round" />
	<path d="M 69.439 9.61 c -0.26 0 -0.52 -0.11 -0.699 -0.3 c -0.101 -0.09 -0.171 -0.2 -0.221 -0.32 s -0.08 -0.25 -0.08 -0.38 c 0 -0.27 0.11 -0.52 0.301 -0.71 c 0.229 -0.23 0.569 -0.34 0.899 -0.27 c 0.061 0.01 0.13 0.03 0.18 0.05 c 0.07 0.03 0.12 0.06 0.181 0.09 c 0.05 0.04 0.1 0.08 0.149 0.13 c 0.091 0.09 0.16 0.2 0.221 0.32 c 0.05 0.13 0.069 0.26 0.069 0.39 s -0.02 0.26 -0.069 0.38 c -0.051 0.12 -0.13 0.23 -0.221 0.32 C 70.1 9.36 70.05 9.4 70 9.44 c -0.061 0.03 -0.11 0.07 -0.181 0.09 c -0.05 0.03 -0.119 0.04 -0.18 0.06 C 69.569 9.6 69.51 9.61 69.439 9.61 z" style="stroke: none; stroke-width: 1; stroke-dasharray: none; stroke-linecap: butt; stroke-linejoin: miter; stroke-miterlimit: 10; opacity: 1;" transform=" matrix(1 0 0 1 0 0) " stroke-linecap="round" />
	<path d="M 81.55 37.85 c -0.27 0 -0.53 -0.11 -0.71 -0.3 c -0.09 -0.09 -0.17 -0.2 -0.22 -0.32 c -0.051 -0.12 -0.07 -0.25 -0.07 -0.38 c 0 -0.14 0.02 -0.26 0.07 -0.39 c 0.05 -0.12 0.13 -0.23 0.22 -0.32 c 0.37 -0.37 1.04 -0.38 1.41 0 c 0.189 0.19 0.3 0.44 0.3 0.71 c 0 0.26 -0.11 0.52 -0.3 0.7 C 82.069 37.74 81.81 37.85 81.55 37.85 z" style="stroke: none; stroke-width: 1; stroke-dasharray: none; stroke-linecap: butt; stroke-linejoin: miter; stroke-miterlimit: 10; opacity: 1;" transform=" matrix(1 0 0 1 0 0) " stroke-linecap="round" />
</g>
</svg>